<svg width="56" height="39" viewBox="0 0 56 39" fill="none" xmlns="http://www.w3.org/2000/svg">
<path d="M31.8572 38.8796H42.3572C42.9452 38.8796 43.4492 38.6976 43.8692 38.3336C44.2332 38.0256 44.6112 37.5076 45.0032 36.7796L55.5032 3.68364C55.7552 2.70364 55.7272 1.87764 55.4192 1.20564C55.1112 0.533638 54.6072 0.197639 53.9072 0.197639H39.5852C38.8852 0.197639 38.3392 0.372639 37.9472 0.722641C37.5552 1.07264 37.2192 1.65364 36.9392 2.46564L29.9672 35.5196C29.6872 36.4996 29.7222 37.3046 30.0722 37.9346C30.4222 38.5646 31.0172 38.8796 31.8572 38.8796ZM2.45717 38.8796H12.9572C13.5452 38.8796 14.0492 38.6976 14.4692 38.3336C14.8332 38.0256 15.2112 37.5076 15.6032 36.7796L26.1032 3.68364C26.3552 2.70364 26.3272 1.87764 26.0192 1.20564C25.7112 0.533638 25.2072 0.197639 24.5072 0.197639H10.0172C9.31717 0.197639 8.77117 0.372639 8.37917 0.722641C7.98717 1.07264 7.65117 1.65364 7.37117 2.46564L0.357167 35.5196C0.189167 36.4996 0.287167 37.3046 0.651167 37.9346C1.01517 38.5646 1.61717 38.8796 2.45717 38.8796Z" fill="#ED1C24"/>
</svg>
