<svg width="19" height="19" viewBox="0 0 19 19" fill="none" xmlns="http://www.w3.org/2000/svg">
<path d="M18.6991 17.5055L14.3251 13.1315C14.9251 12.4475 15.3871 11.6795 15.7111 10.8275C16.0471 9.95149 16.2151 9.03949 16.2151 8.09149C16.2151 6.69949 15.8671 5.40949 15.1711 4.22149C14.4871 3.06949 13.5691 2.15149 12.4171 1.46749C11.2291 0.771494 9.93908 0.423492 8.54708 0.423492C7.15508 0.423492 5.85908 0.771494 4.65908 1.46749C3.50708 2.15149 2.58908 3.06949 1.90508 4.22149C1.20908 5.40949 0.861084 6.69949 0.861084 8.09149C0.861084 9.48349 1.20908 10.7735 1.90508 11.9615C2.58908 13.1255 3.51308 14.0495 4.67708 14.7335C5.86508 15.4295 7.15508 15.7775 8.54708 15.7775C9.48308 15.7775 10.3891 15.6095 11.2651 15.2735C12.1171 14.9495 12.8851 14.4875 13.5691 13.8875L17.9431 18.2615C18.0511 18.3695 18.1771 18.4235 18.3211 18.4235C18.3931 18.4235 18.4621 18.4085 18.5281 18.3785C18.5941 18.3485 18.6511 18.3095 18.6991 18.2615C18.8071 18.1655 18.8611 18.0425 18.8611 17.8925C18.8611 17.7425 18.8071 17.6135 18.6991 17.5055ZM1.94108 8.09149C1.94108 6.90349 2.24108 5.79349 2.84108 4.76149C3.42908 3.77749 4.21508 2.99149 5.19908 2.40349C6.23108 1.80349 7.34408 1.50349 8.53808 1.50349C9.73208 1.50349 10.8391 1.80349 11.8591 2.40349C12.8551 2.99149 13.6471 3.77749 14.2351 4.76149C14.8351 5.79349 15.1351 6.90349 15.1351 8.09149C15.1351 9.27949 14.8351 10.3895 14.2351 11.4215C13.6471 12.4175 12.8551 13.2095 11.8591 13.7975C10.8391 14.3975 9.73208 14.6975 8.53808 14.6975C7.34408 14.6975 6.23108 14.3975 5.19908 13.7975C4.21508 13.2095 3.42908 12.4175 2.84108 11.4215C2.24108 10.4015 1.94108 9.29149 1.94108 8.09149Z" fill="#2E2937"/>
</svg>
