<svg width="19" height="19" viewBox="0 0 19 19" fill="none" xmlns="http://www.w3.org/2000/svg">
<g clip-path="url(#clip0_2_39)">
<path d="M9.78918 10.1255C9.81318 10.1255 9.83718 10.1255 9.86118 10.1255H9.91518C11.0072 10.1135 11.8832 9.73549 12.5432 8.99149C12.9752 8.51149 13.2932 7.88749 13.4972 7.11949C13.6412 6.55549 13.7252 5.94949 13.7492 5.30149C13.7612 4.89349 13.7492 4.56949 13.7132 4.32949C13.6772 3.42949 13.4612 2.67349 13.0652 2.06149C12.7772 1.59349 12.3932 1.22149 11.9132 0.945494C11.3252 0.621492 10.6532 0.447493 9.89718 0.423492H9.84318C9.55518 0.423492 9.26718 0.453493 8.97918 0.513493C8.55918 0.597494 8.17518 0.735493 7.82718 0.927494C7.34718 1.20349 6.95718 1.57549 6.65718 2.04349C6.26118 2.66749 6.04518 3.42949 6.00918 4.32949C5.97318 4.56949 5.96118 4.89349 5.97318 5.30149C5.99718 5.94949 6.08118 6.55549 6.22518 7.11949C6.42918 7.88749 6.74718 8.51149 7.17918 8.99149C7.83918 9.73549 8.70918 10.1135 9.78918 10.1255ZM6.99918 4.41949C6.99918 4.40749 6.99918 4.39549 6.99918 4.38349C7.03518 3.56749 7.23918 2.91949 7.61118 2.43949C7.89918 2.05549 8.28318 1.77949 8.76318 1.61149C9.08718 1.49149 9.44118 1.43149 9.82518 1.43149H9.87918C10.5752 1.44349 11.1572 1.62349 11.6252 1.97149C12.2972 2.46349 12.6572 3.26749 12.7052 4.38349C12.7052 4.40749 12.7112 4.41949 12.7232 4.41949V4.43749C12.7592 4.95349 12.7472 5.46949 12.6872 5.98549C12.5672 7.00549 12.2672 7.78549 11.7872 8.32549C11.3312 8.84149 10.6952 9.10549 9.87918 9.11749H9.84318C9.01518 9.10549 8.37318 8.84149 7.91718 8.32549C7.43718 7.78549 7.14318 6.99949 7.03518 5.96749C6.97518 5.43949 6.96318 4.92949 6.99918 4.43749V4.41949ZM17.5112 14.7155V14.6255C17.4992 13.9775 17.4152 13.4495 17.2592 13.0415C16.9952 12.3215 16.5152 11.8415 15.8192 11.6015L15.7832 11.5835C15.2912 11.4635 14.7752 11.2835 14.2352 11.0435C13.8512 10.8635 13.4792 10.6715 13.1192 10.4675C12.8672 10.3115 12.7232 10.2155 12.6872 10.1795C12.5792 10.0955 12.4562 10.0655 12.3182 10.0895C12.1802 10.1135 12.0692 10.1855 11.9852 10.3055C11.9012 10.4255 11.8742 10.5515 11.9042 10.6835C11.9342 10.8155 12.0032 10.9235 12.1112 11.0075L12.1832 11.0435C13.2992 11.7755 14.4092 12.2795 15.5132 12.5555C15.9092 12.6875 16.1852 12.9695 16.3412 13.4015C16.4372 13.6895 16.4912 14.1035 16.5032 14.6435C16.5032 14.6915 16.5092 14.7215 16.5212 14.7335C16.5212 15.2615 16.4912 15.6455 16.4312 15.8855C15.8432 16.2215 15.1232 16.5215 14.2712 16.7855C12.8792 17.2055 11.4122 17.4155 9.87018 17.4155C8.32818 17.4155 6.86118 17.2055 5.46918 16.7855C4.62918 16.5215 3.90318 16.2215 3.29118 15.8855C3.26718 15.7415 3.24618 15.5555 3.22818 15.3275C3.21018 15.0995 3.20718 14.9015 3.21918 14.7335V14.6435C3.23118 14.1035 3.29118 13.6895 3.39918 13.4015C3.55518 12.9695 3.82518 12.6875 4.20918 12.5555C5.31318 12.2675 6.42318 11.7635 7.53918 11.0435L7.61118 11.0075C7.73118 10.9235 7.80318 10.8125 7.82718 10.6745C7.85118 10.5365 7.82118 10.4105 7.73718 10.2965C7.65318 10.1825 7.54218 10.1135 7.40418 10.0895C7.26618 10.0655 7.14318 10.0955 7.03518 10.1795C6.99918 10.2155 6.85518 10.3055 6.60318 10.4495C6.24318 10.6655 5.87118 10.8575 5.48718 11.0255C4.95918 11.2655 4.44318 11.4515 3.93918 11.5835L3.90318 11.6015C3.20718 11.8415 2.72718 12.3215 2.46318 13.0415C2.30718 13.4375 2.22318 13.9595 2.21118 14.6075V14.7695C2.21118 15.5495 2.27118 16.0955 2.39118 16.4075C2.42718 16.5035 2.49318 16.5815 2.58918 16.6415C2.80518 16.7855 3.11718 16.9475 3.52518 17.1275C4.28118 17.4755 5.10918 17.7575 6.00918 17.9735C7.24518 18.2735 8.52918 18.4235 9.86118 18.4235C11.6852 18.4235 13.4012 18.1535 15.0092 17.6135C15.8372 17.3255 16.5452 17.0075 17.1332 16.6595L17.1512 16.6415C17.2352 16.5815 17.2952 16.5035 17.3312 16.4075C17.4152 16.1915 17.4752 15.8735 17.5112 15.4535C17.5232 15.1295 17.5232 14.8835 17.5112 14.7155Z" fill="#2E2937"/>
</g>
<defs>
<clipPath id="clip0_2_39">
<rect width="18" height="18" fill="white" transform="matrix(1 0 0 -1 0.861084 18.4235)"/>
</clipPath>
</defs>
</svg>
